<svg width="38" height="38" viewBox="0 0 38 38" fill="none" xmlns="http://www.w3.org/2000/svg">
<path fill-rule="evenodd" clip-rule="evenodd" d="M0.666687 3.73002C0.666687 2.91758 0.989431 2.13841 1.56392 1.56392C2.1384 0.989434 2.91757 0.666691 3.73002 0.666691H34.2667C34.6693 0.666034 35.0681 0.744796 35.4403 0.898469C35.8124 1.05214 36.1506 1.27771 36.4354 1.56225C36.7203 1.8468 36.9462 2.18473 37.1003 2.55671C37.2544 2.92868 37.3336 3.3274 37.3334 3.73002V34.2667C37.3338 34.6694 37.2548 35.0682 37.101 35.4404C36.9471 35.8125 36.7214 36.1507 36.4367 36.4355C36.152 36.7204 35.814 36.9463 35.4419 37.1003C35.0699 37.2544 34.6711 37.3336 34.2684 37.3334H3.73002C3.3276 37.3334 2.92912 37.2541 2.55735 37.1C2.18558 36.946 1.84781 36.7202 1.56333 36.4355C1.27885 36.1509 1.05324 35.813 0.899391 35.4412C0.745542 35.0693 0.666469 34.6708 0.666687 34.2684V3.73002ZM15.18 14.6467H20.145V17.14C20.8617 15.7067 22.695 14.4167 25.45 14.4167C30.7317 14.4167 31.9834 17.2717 31.9834 22.51V32.2134H26.6384V23.7034C26.6384 20.72 25.9217 19.0367 24.1017 19.0367C21.5767 19.0367 20.5267 20.8517 20.5267 23.7034V32.2134H15.18V14.6467ZM6.01335 31.985H11.36V14.4167H6.01335V31.9834V31.985ZM12.125 8.68669C12.1351 9.14448 12.0536 9.59967 11.8854 10.0255C11.7172 10.4514 11.4656 10.8394 11.1454 11.1667C10.8252 11.4941 10.4429 11.7541 10.0208 11.9317C9.59871 12.1093 9.14542 12.2007 8.68752 12.2007C8.22962 12.2007 7.77634 12.1093 7.35426 11.9317C6.93219 11.7541 6.54983 11.4941 6.22963 11.1667C5.90944 10.8394 5.65784 10.4514 5.48962 10.0255C5.3214 9.59967 5.23994 9.14448 5.25002 8.68669C5.26981 7.78811 5.64066 6.93301 6.28316 6.3045C6.92566 5.67599 7.78873 5.32405 8.68752 5.32405C9.58631 5.32405 10.4494 5.67599 11.0919 6.3045C11.7344 6.93301 12.1052 7.78811 12.125 8.68669Z" fill="white"/>
</svg>
