<svg width="53" height="53" viewBox="0 0 53 53" fill="none" xmlns="http://www.w3.org/2000/svg">
<path d="M21.3782 24.2783C21.8828 23.9129 22.1264 23.3096 22.1264 22.4802C22.1438 22.0858 22.0626 21.6972 21.8886 21.3434C21.732 21.0592 21.5 20.8214 21.2158 20.6532C20.9211 20.4744 20.5938 20.3561 20.2529 20.3051C19.8817 20.2355 19.5047 20.2007 19.1335 20.2065H15.056V24.8293H19.4699C20.2297 24.8351 20.8735 24.6495 21.3782 24.2783V24.2783ZM22.0626 28.4544C21.4942 28.0194 20.7343 27.8048 19.7889 27.8048H15.0444V33.2569H19.6961C20.1311 33.2569 20.5313 33.2163 20.92 33.1351C21.2876 33.0632 21.6381 32.9215 21.9524 32.7175C22.2482 32.5261 22.486 32.2651 22.6658 31.9287C22.8398 31.5923 22.9268 31.1631 22.9268 30.6469C22.9268 29.6202 22.6368 28.8952 22.0626 28.4544V28.4544ZM26.6969 0.712139C12.3473 0.712139 0.712128 12.3473 0.712128 26.6969C0.712128 41.0466 12.3473 52.6817 26.6969 52.6817C41.0466 52.6817 52.6817 41.0466 52.6817 26.6969C52.6817 12.3473 41.0466 0.712139 26.6969 0.712139ZM31.7141 17.3529H39.7415V19.3075H31.7141V17.3529ZM26.6969 33.4715C26.3215 34.1843 25.7853 34.7999 25.1309 35.2696C24.4465 35.7452 23.6866 36.0932 22.8804 36.2962C22.0369 36.5223 21.1668 36.6335 20.2935 36.6268H10.6884V16.8424H20.0267C20.9722 16.8424 21.8306 16.9294 22.6136 17.0918C23.3908 17.2542 24.052 17.5327 24.6089 17.9097C25.1599 18.2867 25.5949 18.7913 25.9023 19.4177C26.2039 20.0383 26.3605 20.8156 26.3605 21.7378C26.3605 22.7354 26.1343 23.559 25.6819 24.2261C25.2237 24.8931 24.5625 25.4325 23.6634 25.8559C24.8873 26.2039 25.7863 26.8245 26.3779 27.6946C26.9811 28.5762 27.2769 29.6318 27.2769 30.8731C27.2769 31.8823 27.0855 32.7465 26.6969 33.4715ZM42.8678 30.4091H32.5203C32.5203 31.5343 32.9089 32.6131 33.4947 33.1931C34.0864 33.7674 34.9332 34.0574 36.041 34.0574C36.8414 34.0574 37.5201 33.8544 38.1001 33.4541C38.6743 33.0539 39.0223 32.6305 39.1499 32.1897H42.6184C42.0616 33.9124 41.2148 35.142 40.0663 35.8844C38.9295 36.6268 37.5375 36.9981 35.9192 36.9981C34.7882 36.9981 33.7731 36.8125 32.8625 36.4586C31.9867 36.1164 31.1979 35.5944 30.5482 34.9216C29.9077 34.2306 29.4126 33.418 29.0924 32.5319C28.7386 31.5517 28.5646 30.5193 28.5762 29.481C28.5762 28.408 28.756 27.4104 29.104 26.4823C29.771 24.6785 31.1573 23.2342 32.9263 22.486C33.8718 22.0916 34.8868 21.8944 35.9134 21.906C37.1315 21.906 38.1871 22.138 39.1035 22.6136C39.9858 23.0678 40.7518 23.7187 41.3424 24.5161C41.9282 25.3107 42.34 26.2155 42.601 27.2364C42.8504 28.2398 42.9374 29.2954 42.8678 30.4091V30.4091ZM35.7916 24.8641C35.1652 24.8641 34.6374 24.9743 34.2314 25.1889C33.8254 25.4035 33.4889 25.6703 33.2337 25.9777C32.9907 26.2745 32.811 26.618 32.7059 26.987C32.6131 27.2944 32.5493 27.6076 32.5261 27.9266H38.9353C38.8425 26.9231 38.4945 26.1807 38.0305 25.6587C37.5433 25.1425 36.7602 24.8641 35.7916 24.8641V24.8641Z" fill="white"/>
</svg>
