<svg width="85" height="27" viewBox="0 0 85 27" fill="none" xmlns="http://www.w3.org/2000/svg">
<path d="M14.3099 22.257L0.365552 15.6894V11.7987L14.3099 5.23121V8.81067L5.28341 12.9815C4.8684 13.1683 4.45339 13.3343 4.03838 13.4795C3.64412 13.604 3.33287 13.687 3.10461 13.7285C3.33287 13.77 3.6545 13.853 4.06951 13.9775C4.48452 14.102 4.88915 14.2577 5.28341 14.4444L14.3099 18.6153V22.257ZM55.3904 26.5679L63.5609 4.62426H66.5957L58.4252 26.5679H55.3904ZM70.3527 22.257V18.6775L79.3792 14.5067C79.7942 14.3199 80.1988 14.1643 80.5931 14.0398C81.0081 13.8945 81.3297 13.8012 81.558 13.7596C81.3297 13.7181 81.0081 13.6455 80.5931 13.5418C80.1781 13.4173 79.7734 13.2616 79.3792 13.0749L70.3527 8.87292V5.23121L84.297 11.7987V15.6894L70.3527 22.257Z" fill="white"/>
<path d="M25.0672 24.3424C22.7639 24.3424 20.9378 23.7095 19.5891 22.4437C18.261 21.1572 17.597 19.4349 17.597 17.2769H21.4877C21.4877 18.4181 21.8094 19.3104 22.4526 19.9537C23.0959 20.5969 23.9674 20.9186 25.0672 20.9186C26.167 20.9186 27.0385 20.6073 27.6817 19.9848C28.325 19.3415 28.6466 18.4493 28.6466 17.308V4.88883H23.3553V1.27825H32.5374V17.308C32.5374 19.4868 31.863 21.2091 30.5142 22.4748C29.1862 23.7199 27.3705 24.3424 25.0672 24.3424ZM44.7887 24.3113C43.3362 24.3113 42.06 24.0415 40.9603 23.502C39.8812 22.9417 39.0408 22.1636 38.4391 21.1676C37.8581 20.1508 37.5676 18.9576 37.5676 17.5881V7.69014C37.5676 6.29986 37.8581 5.10671 38.4391 4.11069C39.0408 3.11467 39.8812 2.3469 40.9603 1.80739C42.06 1.24713 43.3362 0.966994 44.7887 0.966994C46.262 0.966994 47.5278 1.24713 48.586 1.80739C49.6651 2.3469 50.5055 3.11467 51.1072 4.11069C51.709 5.10671 52.0099 6.29986 52.0099 7.69014H48.088C48.088 6.61112 47.7975 5.79147 47.2165 5.23121C46.6563 4.67095 45.847 4.39082 44.7887 4.39082C43.7304 4.39082 42.9108 4.67095 42.3298 5.23121C41.7488 5.79147 41.4583 6.60074 41.4583 7.65902V17.5881C41.4583 18.6464 41.7488 19.466 42.3298 20.047C42.9108 20.6073 43.7304 20.8874 44.7887 20.8874C45.847 20.8874 46.6563 20.6073 47.2165 20.047C47.7975 19.466 48.088 18.6464 48.088 17.5881H52.0099C52.0099 18.9369 51.709 20.1197 51.1072 21.1364C50.5055 22.1532 49.6651 22.9417 48.586 23.502C47.5278 24.0415 46.262 24.3113 44.7887 24.3113Z" fill="#5452F6"/>
</svg>
